<?xml version="1.0" standalone="no"?><!DOCTYPE svg PUBLIC "-//W3C//DTD SVG 1.1//EN" "http://www.w3.org/Graphics/SVG/1.1/DTD/svg11.dtd"><svg t="1622810169767" class="icon" viewBox="0 0 1024 1024" version="1.1" xmlns="http://www.w3.org/2000/svg" p-id="2679" xmlns:xlink="http://www.w3.org/1999/xlink" width="200" height="200"><defs><style type="text/css"></style></defs><path d="M256.948148 786.962963m-66.37037 0a66.37037 66.37037 0 1 0 132.740741 0 66.37037 66.37037 0 1 0-132.740741 0Z" p-id="2680" fill="#1296db"></path><path d="M786.488889 786.962963m-66.37037 0a66.37037 66.37037 0 1 0 132.74074 0 66.37037 66.37037 0 1 0-132.74074 0Z" p-id="2681" fill="#1296db"></path><path d="M594.962963 170.666667H199.111111c-62.862222 0-113.777778 50.915556-113.777778 113.777777v471.703704c0 11.757037 9.576296 21.333333 21.333334 21.333333h55.94074c4.740741-47.881481 45.226667-85.333333 94.340741-85.333333s89.6 37.451852 94.340741 85.333333h243.674074c11.757037 0 21.333333-9.576296 21.333333-21.333333v-564.148148c0-11.757037-9.576296-21.333333-21.333333-21.333333zM748.562963 360.296296H656.118519c-11.757037 0-21.333333 9.576296-21.333334 21.333334v374.518518c0 11.757037 9.576296 21.333333 21.333334 21.333333h36.029629c4.740741-47.881481 45.226667-85.333333 94.340741-85.333333s89.6 37.451852 94.340741 85.333333h36.029629c11.757037 0 21.333333-9.576296 21.333334-21.333333V549.925926c0-104.296296-85.333333-189.62963-189.62963-189.62963zM872.296296 545.185185H701.62963V412.444444h37.925926c73.007407 0 132.740741 59.733333 132.74074 132.740741z" p-id="2682" fill="#1296db"></path></svg>