<?xml version="1.0" standalone="no"?><!DOCTYPE svg PUBLIC "-//W3C//DTD SVG 1.1//EN" "http://www.w3.org/Graphics/SVG/1.1/DTD/svg11.dtd"><svg t="1622806932395" class="icon" viewBox="0 0 1024 1024" version="1.1" xmlns="http://www.w3.org/2000/svg" p-id="4863" xmlns:xlink="http://www.w3.org/1999/xlink" width="200" height="200"><defs><style type="text/css"></style></defs><path d="M944.32 367.445V130.307c0-33.044-15.578-64.929-42.739-87.48-25.408-21.095-58.738-32.713-93.85-32.713H209.394c-35.112 0-68.442 11.618-93.851 32.713-27.161 22.551-42.739 54.436-42.739 87.48v237.138c0 31.11 13.812 61.19 38.093 83.423-23.579 24.558-38.093 57.881-38.093 94.534v285.616c0 75.316 61.274 136.591 136.589 136.591h24.482v15.285c0 20.898 17.909 37.84 40 37.84s40-16.941 40-37.84v-15.285h393.497v15.285c0 20.898 17.908 37.84 40 37.84s40-16.941 40-37.84v-15.285h20.358c75.315 0 136.589-61.274 136.589-136.591V545.402c0-36.652-14.515-69.976-38.093-94.534 24.283-22.233 38.094-52.312 38.094-83.423zM152.805 130.307c0-21.787 25.915-40.193 56.589-40.193h598.337c30.675 0 56.589 18.406 56.589 40.193v237.138c0 21.788-25.914 40.194-56.589 40.194H209.394c-30.674 0-56.589-18.407-56.589-40.194V130.307zM864.32 831.019c0 31.204-25.386 56.591-56.589 56.591H209.394c-31.204 0-56.589-25.387-56.589-56.591V545.402c0-31.204 25.386-56.59 56.589-56.59h598.337c31.203 0 56.589 25.386 56.589 56.59v285.617z" fill="#1C86E5" p-id="4864"></path><path d="M286.835 298.593c-22.091 0-40-17.909-40-40v-38.868c0-22.091 17.909-40 40-40s40 17.909 40 40v38.868c0 22.092-17.909 40-40 40zM286.835 755.598c-22.091 0-40-17.908-40-40V676.73c0-22.092 17.909-40 40-40s40 17.908 40 40v38.867c0 22.092-17.909 40.001-40 40.001z" fill="#80E1FF" p-id="4865"></path></svg>